<svg width="24" height="24" viewBox="0 0 24 24" fill="none" xmlns="http://www.w3.org/2000/svg">
<path d="M19.0711 4.92891C17.1823 3.04016 14.6711 2 12 2C9.32891 2 6.81766 3.04016 4.92891 4.92891C3.0402 6.81766 2 9.32891 2 12C2 14.6711 3.0402 17.1823 4.92891 19.0711C6.81766 20.9598 9.32891 22 12 22C14.6711 22 17.1823 20.9598 19.0711 19.0711C20.9598 17.1823 22 14.6711 22 12C22 9.32891 20.9598 6.81766 19.0711 4.92891ZM12 20.8281C7.13215 20.8281 3.17188 16.8679 3.17188 12C3.17188 7.13215 7.13215 3.17188 12 3.17188C16.8679 3.17188 20.8281 7.13215 20.8281 12C20.8281 16.8679 16.8679 20.8281 12 20.8281Z" fill="#454D53"/>
<path d="M12.724 11.6484H11.4687C10.7536 11.6484 10.1718 11.0666 10.1718 10.3516C10.1718 9.63645 10.7536 9.05469 11.4687 9.05469H13.9792C14.3027 9.05469 14.5651 8.79234 14.5651 8.46875C14.5651 8.14516 14.3027 7.88281 13.9792 7.88281H12.6823V6.58594C12.6823 6.26234 12.4199 6 12.0963 6C11.7727 6 11.5104 6.26234 11.5104 6.58594V7.88281H11.4688C10.1075 7.88281 9 8.99031 9 10.3516C9 11.7128 10.1075 12.8203 11.4688 12.8203H12.724C13.4391 12.8203 14.0208 13.4021 14.0208 14.1171C14.0208 14.8322 13.4391 15.414 12.724 15.414H10.2136C9.88996 15.414 9.62762 15.6764 9.62762 16C9.62762 16.3236 9.88996 16.5859 10.2136 16.5859H11.5104V17.8828C11.5104 18.2064 11.7727 18.4688 12.0963 18.4688C12.4199 18.4688 12.6823 18.2064 12.6823 17.8828V16.5859H12.724C14.0852 16.5859 15.1927 15.4784 15.1927 14.1171C15.1927 12.7559 14.0852 11.6484 12.724 11.6484Z" fill="#454D53"/>
</svg>
