<svg width="24" height="24" viewBox="0 0 24 24" fill="none" xmlns="http://www.w3.org/2000/svg">
<path d="M11.6375 19.7875C12.321 19.7875 12.875 19.2334 12.875 18.55C12.875 17.8665 12.321 17.3125 11.6375 17.3125C10.9541 17.3125 10.4 17.8665 10.4 18.55C10.4 19.2334 10.9541 19.7875 11.6375 19.7875Z" fill="#454D53"/>
<path d="M21.3987 8.10114C18.9338 5.45653 15.5961 4.00004 11.9999 4C8.40401 4.00004 5.06626 5.45653 2.60135 8.10114C2.31898 8.40414 2.33566 8.87874 2.63866 9.16115C2.9417 9.44353 3.41626 9.42688 3.69867 9.12384C5.87667 6.78699 8.82476 5.50003 12.0001 5.5C15.1753 5.50003 18.1234 6.78699 20.3014 9.12384C20.4491 9.28232 20.6494 9.36249 20.8502 9.36249C21.0333 9.36249 21.2168 9.29581 21.3614 9.16115C21.6644 8.8787 21.6811 8.40414 21.3987 8.10114Z" fill="#454D53"/>
<path d="M18.3074 11.1984C16.4854 9.36265 14.1255 8.35169 11.6625 8.35176C9.19898 8.3518 6.83911 9.3628 5.01766 11.1985C4.72591 11.4925 4.72775 11.9674 5.02179 12.2591C5.31582 12.5509 5.79069 12.549 6.08244 12.255C7.62012 10.7053 9.60184 9.85179 11.6625 9.85176C13.7227 9.85168 15.7044 10.7052 17.2427 12.2551C17.3893 12.4028 17.5821 12.4767 17.775 12.4767C17.966 12.4767 18.1571 12.4042 18.3034 12.2591C18.5974 11.9673 18.5992 11.4924 18.3074 11.1984Z" fill="#454D53"/>
<path d="M15.5778 14.3047C14.6021 13.338 13.2034 12.7375 11.9276 12.7375C11.9275 12.7375 11.9272 12.7375 11.927 12.7375H11.873C11.8728 12.7375 11.8727 12.7375 11.8724 12.7375C10.5966 12.7375 9.19783 13.338 8.22212 14.3047C7.9279 14.5962 7.92568 15.0711 8.21721 15.3653C8.36387 15.5133 8.55692 15.5875 8.75001 15.5875C8.94077 15.5875 9.13161 15.5151 9.27782 15.3703C9.97243 14.6821 10.9908 14.2375 11.8725 14.2375C11.8726 14.2375 11.8728 14.2375 11.8729 14.2375H11.9272C11.9273 14.2375 11.9273 14.2375 11.9275 14.2375C12.8091 14.2375 13.8275 14.6821 14.5221 15.3703C14.8163 15.6618 15.2912 15.6597 15.5827 15.3653C15.8743 15.0711 15.8721 14.5962 15.5778 14.3047Z" fill="#454D53"/>
</svg>
