<svg width="34" height="34" viewBox="0 0 34 34" fill="none" xmlns="http://www.w3.org/2000/svg">
<path d="M30.169 0H3.83099C1.71519 0 0 1.71519 0 3.83099V30.169C0 32.2848 1.71519 34 3.83099 34H30.169C32.2848 34 34 32.2848 34 30.169V3.83099C34 1.71519 32.2848 0 30.169 0Z" fill="#0675CE"/>
<path d="M7.15729 12.0532L10.3553 18.3616C10.4706 17.9631 10.5721 17.6471 10.6644 17.3288C11.6235 14.0503 12.5799 10.773 13.5336 7.49681C13.6063 7.24471 13.7101 7.18314 13.9593 7.18314C15.3437 7.19592 16.735 7.18894 18.1229 7.18894H18.4505C18.2025 8.04052 17.9648 8.86072 17.7249 9.67977C16.0959 15.2431 14.4692 20.8067 12.8449 26.3708C12.7583 26.6694 12.643 26.76 12.3361 26.7542C11.1674 26.7333 9.99762 26.7403 8.8278 26.7542C8.65424 26.7768 8.4897 26.6704 8.43786 26.5021C7.44494 24.2645 6.4451 22.0297 5.43833 19.7976C5.37857 19.6817 5.36258 19.548 5.39334 19.4212C5.98286 16.9942 6.55854 14.5696 7.15729 12.0532Z" fill="white"/>
<path d="M29.1554 7.22145C28.9362 7.97776 28.7204 8.73175 28.4989 9.49038C26.8446 15.1358 25.191 20.7816 23.5382 26.4277C23.4678 26.6705 23.3732 26.7519 23.1171 26.7495C21.6854 26.7356 20.2537 26.7426 18.822 26.7426C18.7689 26.7426 18.7147 26.7344 18.6247 26.7286C18.8347 26.0083 19.04 25.3055 19.2454 24.6026C19.7126 23.0017 20.1752 21.3985 20.654 19.801C20.7359 19.5292 20.6886 19.4606 20.4083 19.463C19.1739 19.4746 17.9383 19.463 16.7039 19.463C16.2712 19.463 16.2678 19.463 16.382 19.0285C16.7281 17.7238 17.08 16.4203 17.4203 15.1133C17.4803 14.881 17.5795 14.795 17.8206 14.7985C19.1312 14.8194 20.4417 14.8159 21.7523 14.8438C22.0396 14.8496 22.1434 14.745 22.2138 14.4825C22.8898 12.1299 23.5797 9.78198 24.265 7.43289C24.3065 7.29116 24.3434 7.18195 24.5407 7.18311C26.052 7.19473 27.5599 7.19241 29.0677 7.19473C29.0978 7.20046 29.1272 7.20942 29.1554 7.22145Z" fill="white"/>
</svg>
